<?xml version="1.0" standalone="no"?>
<!DOCTYPE svg PUBLIC "-//W3C//DTD SVG 20010904//EN"
 "http://www.w3.org/TR/2001/REC-SVG-20010904/DTD/svg10.dtd">
<svg version="1.0" xmlns="http://www.w3.org/2000/svg"
 width="512.000000pt" height="512.000000pt" viewBox="0 0 512.000000 512.000000"
 preserveAspectRatio="xMidYMid meet">
<metadata>
Created by potrace 1.11, written by Peter Selinger 2001-2013
</metadata>
<g transform="translate(0.000000,512.000000) scale(0.100000,-0.100000)"
fill="#000000" stroke="none">
<path d="M2597 4954 c-3 -5 -66 -9 -140 -9 -74 0 -133 -3 -131 -6 2 -3 -18 -7
-44 -8 -27 0 -62 -5 -80 -10 -23 -7 -32 -6 -32 2 0 9 -2 9 -8 1 -6 -10 -25
-15 -112 -30 -14 -3 -42 -9 -63 -15 -20 -5 -43 -7 -49 -3 -7 4 -8 3 -4 -4 4
-8 0 -12 -11 -12 -10 0 -70 -18 -133 -40 -63 -22 -119 -41 -125 -43 -5 -1 -12
-5 -15 -9 -3 -3 -14 -8 -25 -10 -11 -1 -23 -7 -26 -11 -3 -5 -12 -9 -20 -10
-18 -3 -266 -134 -279 -147 -3 -3 -30 -21 -60 -40 -30 -19 -57 -37 -60 -40 -3
-3 -29 -23 -58 -44 -77 -56 -123 -97 -248 -221 -222 -219 -391 -469 -512 -755
-52 -123 -103 -275 -118 -353 -2 -10 -5 -26 -8 -35 -5 -18 -8 -31 -25 -122
-26 -141 -35 -244 -35 -405 0 -127 9 -296 19 -345 2 -13 7 -42 10 -65 4 -22
13 -69 21 -105 9 -36 17 -72 19 -80 37 -161 101 -331 195 -515 114 -224 244
-400 431 -585 161 -159 163 -161 268 -239 294 -218 652 -372 1011 -436 34 -6
52 -8 155 -20 28 -3 99 -8 158 -10 60 -3 112 -7 117 -10 4 -3 11 1 14 7 5 10
7 10 12 0 5 -10 9 -10 20 -1 11 9 14 8 14 -2 0 -10 2 -11 8 -2 8 13 29 12 51
-1 10 -6 12 -5 7 3 -5 8 1 11 21 10 15 -1 51 1 78 5 28 3 70 8 95 11 50 6 85
13 85 15 0 1 11 3 25 5 60 7 265 60 293 76 10 5 22 7 27 4 4 -3 10 -2 12 2 5
13 99 43 112 36 6 -3 8 -2 4 2 -7 7 103 61 137 68 6 1 12 5 15 8 11 13 155 84
165 81 6 -2 7 0 3 4 -4 4 19 23 53 43 78 46 237 165 318 238 330 299 563 664
695 1088 43 140 78 323 93 477 13 146 6 480 -12 548 -2 8 -6 33 -10 55 -8 62
-35 183 -57 260 -143 506 -437 936 -868 1268 -50 39 -170 117 -179 117 -6 0
-11 3 -11 8 0 4 -21 18 -47 32 -27 13 -50 27 -53 30 -4 4 -118 62 -130 65 -3
1 -23 10 -45 20 -22 10 -44 20 -50 21 -42 11 -104 42 -98 49 5 4 3 5 -3 2 -7
-4 -31 0 -55 9 -59 21 -265 74 -309 80 -19 3 -46 7 -60 10 -14 3 -47 7 -75 10
-27 3 -57 7 -65 10 -8 3 -55 6 -105 7 -49 1 -93 6 -96 11 -4 4 -9 4 -12 0z"/>
</g>
</svg>
